<svg xmlns="http://www.w3.org/2000/svg" xmlns:xlink="http://www.w3.org/1999/xlink" data-name="Flat Gradient" viewBox="0 0 64 64" id="box"><defs><linearGradient id="a" x1="3.063" x2="18.925" y1="26.807" y2="26.807" gradientUnits="userSpaceOnUse"><stop offset="0" stop-color="#ff81ff"></stop><stop offset="1" stop-color="#a93aff"></stop></linearGradient><linearGradient id="b" x1="19.443" x2="59.063" y1="50.849" y2="50.849" xlink:href="#a"></linearGradient><linearGradient id="c" x1="22.125" x2="54.739" y1="29.352" y2="29.352" xlink:href="#a"></linearGradient><linearGradient id="d" x1="35.864" x2="40.999" y1="16.102" y2="16.102" xlink:href="#a"></linearGradient></defs><path fill="url(#a)" d="M10.13416,9.68539A1.03421,1.03421,0,0,0,9.168,8.99278H4.07807a1.03557,1.03557,0,0,0,.00007,2.07074l4.28639.0012,8.41759,33.5565h2.14323L10.1868,9.82226A1.06426,1.06426,0,0,0,10.13416,9.68539Z"></path><path fill="url(#b)" d="M58.839,50.23292a3.52851,3.52851,0,0,0-1.40809-1.80154,2.32827,2.32827,0,0,0,1.14925-.37272c.11387-.07248.37272-.27957.37272-.497,0-.3106-.68332-.86968-1.79118-.86968H19.443l.43484,1.74979h1.8119A3.6277,3.6277,0,0,0,20.085,51.42363a3.58259,3.58259,0,0,0,7.16477-.00011,3.62784,3.62784,0,0,0-1.60483-2.98177H53.50679a3.57562,3.57562,0,1,0,5.3322,1.79117ZM23.66732,52.93523a1.50655,1.50655,0,0,1,.00007-3.0129A1.50655,1.50655,0,0,1,23.66732,52.93523Zm31.80671,0a1.50669,1.50669,0,0,1,.00006-3.0129A1.50669,1.50669,0,0,1,55.474,52.93523Z"></path><path fill="url(#c)" d="M37.39638,44.62122c.91745-.02837,13.94417.02044,15.27169-.00007l2.07082.00007V30.38483a1.03843,1.03843,0,0,0-1.03538-1.03537H50.701c.01456,1.20452-.0105,3.86,0,5.08368a1.03184,1.03184,0,0,1-1.0354,1.03535H42.46974a1.0318,1.0318,0,0,1-1.03538-1.03538V29.34946h2.07075c-.00323,1.00835.00233,3.04185,0,4.04828h5.12512c-.00252-1.0072.00182-3.03948,0-4.04829h-1.522V15.11307a1.03843,1.03843,0,0,0-1.03537-1.03537H43.07021v5.08365a1.0384,1.0384,0,0,1-1.03538,1.03538H34.82868a1.03844,1.03844,0,0,1-1.03538-1.03538V14.0777H30.80106a1.03843,1.03843,0,0,0-1.03538,1.03537V29.34946H28.23335v4.04828h5.13541c.00126-1.0072-.0009-3.03948,0-4.04829h2.07074v5.08365a1.03839,1.03839,0,0,1-1.03537,1.03538H27.198a1.03844,1.03844,0,0,1-1.03538-1.03538V29.34946H23.16a1.03843,1.03843,0,0,0-1.03538,1.03537V44.62122C22.97971,44.62686,36.11361,44.61715,37.39638,44.62122Z"></path><path fill="url(#d)" d="M40.99946,16.14844V14.0777H35.86405c.00164,1.00944-.00118,3.04107,0,4.04828h5.13541Z"></path></svg>