<svg xmlns="http://www.w3.org/2000/svg" data-name="Layer 1" viewBox="0 0 128 128" id="carry"><path d="M48.051 24a12 12 0 1 0-11.993-11.999A11.998 11.998 0 0 0 48.051 24Zm0-20a8 8 0 1 1-7.996 8.001A8.005 8.005 0 0 1 48.051 4Z"></path><path d="M105.005 1H74.029a6.004 6.004 0 0 0-5.996 6v26h-4.33a15.334 15.334 0 0 0-5.56-8.605 16.009 16.009 0 0 1-3.746 2.283c3.433 2.067 5.643 5.725 5.643 9.123V41H45.885a2 2 0 0 0 0 4h33.788a2.026 2.026 0 1 1 0 4H40.055a2 2 0 0 0 0 4H60.04v21.87a.557.557 0 0 1-.387.13H34.446a.556.556 0 0 1-.386-.13V35.8c0-3.7 2.618-7.707 6.585-9.632a16.05 16.05 0 0 1-3.58-2.573 14.986 14.986 0 0 0-7.002 12.206V74.93a3.973 3.973 0 0 0 1.803 3.275l.559 15.18-15.132 29.598c-1.212 2.37 1.589 5.017 3.85 5.017h14.27c2.507 0 7.175 0 7.175-4.807a5.573 5.573 0 0 0-4.539-5.536l12.986-19.704a1.99 1.99 0 0 0 .297-.74L54.684 79h4.969a4.631 4.631 0 0 0 .487-.046l8.639 37.953a1.924 1.924 0 0 0 1.146 1.326 2.962 2.962 0 0 0 2.226-.123c1.427-.45 3.235-.663 3.78.861a2.313 2.313 0 0 1 .107.416c-.257.419-2.058.986-2.828 1.23l-10.709 3.379a.195.195 0 0 1-.196-.088l-7.839-23.912c-.032.052-.06.108-.094.16l-2.711 4.113 6.864 20.936a4.313 4.313 0 0 0 5.178 2.606l10.708-3.38c1.992-.628 4.25-1.34 5.203-3.26a4.406 4.406 0 0 0 .081-3.545c-1.082-3.03-3.894-4.371-7.485-3.656l-8.524-37.446a3.806 3.806 0 0 0 .35-1.594V53h15.637a6.339 6.339 0 0 0 5.976-4h19.356A6.004 6.004 0 0 0 111 43V7a6.004 6.004 0 0 0-5.995-6Zm-57.53 95.09-14.594 22.144a2 2 0 0 0 1.669 3.1h.862c2.11 0 3.18.626 3.18 1.86a1.09 1.09 0 0 1-.065.464c-.336.342-2.355.342-3.115.342h-14.15L36.22 94.744a1.999 1.999 0 0 0 .218-.985L35.895 79H50.62ZM74.03 5h30.976a2.002 2.002 0 0 1 1.998 2v6H72.03V7a2.002 2.002 0 0 1 1.999-2Zm-5.996 36h-3.997v-4h3.997Zm36.972 4H85.649a6.339 6.339 0 0 0-5.976-4H72.03V17h34.973v26a2.002 2.002 0 0 1-1.998 2Z"></path></svg>