<svg xmlns="http://www.w3.org/2000/svg" viewBox="0 0 512 512" id="checklist"><path fill="#837683" fill-rule="evenodd" d="M427.23 50.36c12.248 0 22.237 9.989 22.237 22.237v409.175c0 12.248-9.99 22.238-22.237 22.238H84.769c-12.248 0-22.237-9.99-22.237-22.238V72.598c0-12.248 9.99-22.237 22.237-22.237H427.23z" clip-rule="evenodd"></path><path fill="#685e68" fill-rule="evenodd" d="M398.532 504.01h28.699c12.248 0 22.237-9.99 22.237-22.238V72.598c0-12.248-9.99-22.237-22.237-22.237h-28.699V504.01z" clip-rule="evenodd"></path><path fill="#eceff1" fill-rule="evenodd" d="M408.532 81.296H103.467c-5.508 0-10 4.492-10 10v371.78c0 5.508 4.492 10 10 10h305.065c5.508 0 10-4.492 10-10V91.295c0-5.507-4.492-9.999-10-9.999z" clip-rule="evenodd"></path><path fill="#d1d1d6" fill-rule="evenodd" d="M398.532 473.075h10.001c.315 0 .626-.015.934-.043 5.073-.473 9.066-4.763 9.066-9.956V91.295c0-5.193-3.993-9.483-9.066-9.956a9.954 9.954 0 0 0-.934-.043h-10.001v391.779z" clip-rule="evenodd"></path><path fill="#e3a76f" fill-rule="evenodd" d="M180.384 36.919h31.697c4.082 0 7.57-2.296 9.184-6.045C227.056 17.426 240.428 8.01 256 8.01s28.943 9.416 34.734 22.864c1.614 3.749 5.102 6.045 9.184 6.045h31.697c5.508 0 10 4.492 10 10v37.819c0 5.507-4.492 10-10 10H180.384c-5.508 0-10-4.492-10-10v-37.82c.001-5.507 4.493-9.999 10-9.999z" clip-rule="evenodd"></path><path fill="#c48958" fill-rule="evenodd" d="m321.615 84.737-151.23.001c0 5.507 4.492 10 10 10h151.231c5.508 0 10-4.492 10-10v-37.82c0-5.507-4.492-10-10-10v37.819a9.952 9.952 0 0 1-2.462 6.559 9.988 9.988 0 0 1-7.539 3.441z" clip-rule="evenodd"></path><g fill-rule="evenodd" clip-rule="evenodd"><path fill="#ffe177" d="M158.19 147.6h37.501c6.806 0 12.375 5.568 12.375 12.375v37.501c0 6.806-5.568 12.375-12.375 12.375H158.19c-6.806 0-12.375-5.568-12.375-12.375v-37.501c.001-6.807 5.569-12.375 12.375-12.375z"></path><path fill="#6cf5c2" d="M158.19 252.781h37.501c6.806 0 12.375 5.568 12.375 12.375v37.501c0 6.806-5.568 12.375-12.375 12.375H158.19c-6.806 0-12.375-5.568-12.375-12.375v-37.501c.001-6.807 5.569-12.375 12.375-12.375z"></path><path fill="#8ac9fe" d="M158.19 357.962h37.501c6.806 0 12.375 5.568 12.375 12.375v37.501c0 6.806-5.568 12.375-12.375 12.375H158.19c-6.806 0-12.375-5.568-12.375-12.375v-37.501c.001-6.807 5.569-12.375 12.375-12.375z"></path></g><path fill-rule="evenodd" d="M200.07 407.838c0 2.373-2.01 4.374-4.383 4.374H158.19c-2.373 0-4.368-2-4.368-4.374v-37.501c0-2.373 1.995-4.374 4.368-4.374h37.497c2.373 0 4.383 2 4.383 4.374v6.883l-11.243 10.195-12.818-12.813c-3.118-3.128-8.181-3.128-11.313 0a8.013 8.013 0 0 0 0 11.309l18.215 18.211a7.968 7.968 0 0 0 5.657 2.34c1.92 0 3.84-.689 5.373-2.076l6.129-5.557v9.009zm27.34-55.434-12.469 11.318c-2.75-7.992-10.332-13.762-19.253-13.762H158.19c-11.233 0-20.371 9.143-20.371 20.376v37.501c0 11.233 9.139 20.376 20.371 20.376h37.497c11.242 0 20.381-9.143 20.381-20.376v-23.532l22.094-20.051a7.994 7.994 0 0 0 .547-11.304 8.003 8.003 0 0 0-11.299-.546zm-27.34-49.749c0 2.373-2.01 4.378-4.383 4.378H158.19c-2.373 0-4.368-2.005-4.368-4.378v-37.497c0-2.373 1.995-4.378 4.368-4.378h37.497c2.373 0 4.383 2.005 4.383 4.378v6.883l-11.243 10.195-12.818-12.818c-3.118-3.123-8.181-3.123-11.313 0-3.114 3.123-3.114 8.19 0 11.313l18.215 18.206a7.953 7.953 0 0 0 5.657 2.345c1.92 0 3.84-.689 5.373-2.076l6.129-5.557v9.006zm27.34-55.43-12.469 11.318c-2.75-7.997-10.332-13.762-19.253-13.762H158.19c-11.233 0-20.371 9.138-20.371 20.376v37.497c0 11.238 9.139 20.376 20.371 20.376h37.497c11.242 0 20.381-9.138 20.381-20.376v-23.528l22.094-20.055a7.988 7.988 0 0 0 .547-11.299 7.995 7.995 0 0 0-11.299-.547zm-27.34-87.25v6.883l-11.243 10.195-12.818-12.818c-3.118-3.123-8.181-3.123-11.313 0-3.114 3.128-3.114 8.19 0 11.313l18.215 18.211a7.968 7.968 0 0 0 5.657 2.34c1.92 0 3.84-.689 5.373-2.076l6.129-5.558v9.011c0 2.373-2.01 4.373-4.383 4.373H158.19c-2.373 0-4.368-2-4.368-4.373v-37.502c0-2.368 1.995-4.373 4.368-4.373h37.497c2.374 0 4.383 2.005 4.383 4.374zm-62.251 0v37.502c0 11.233 9.139 20.376 20.371 20.376h37.497c11.242 0 20.381-9.143 20.381-20.376v-23.532l22.094-20.051a7.994 7.994 0 0 0 .547-11.304c-2.968-3.269-8.03-3.515-11.299-.547l-12.469 11.318c-2.75-7.992-10.332-13.762-19.253-13.762H158.19c-11.232-.001-20.371 9.142-20.371 20.376zm115.869 206.879a7.999 7.999 0 0 1 8.001-8.001h104.49a8 8 0 1 1 0 15.998h-104.49a7.999 7.999 0 0 1-8.001-7.997zm0 44.47a7.999 7.999 0 0 1 8.001-8.001h104.49a8 8 0 1 1 0 15.998h-104.49a7.999 7.999 0 0 1-8.001-7.997zm0-149.653a8.002 8.002 0 0 1 8.001-8.001h104.49a8.003 8.003 0 0 1 8.002 8.001 8 8 0 0 1-8.002 8.001h-104.49a7.998 7.998 0 0 1-8.001-8.001zm0 44.47a7.999 7.999 0 0 1 8.001-8.001h104.49a8 8 0 0 1 8.002 8.001 8.002 8.002 0 0 1-8.002 8.001h-104.49a8.002 8.002 0 0 1-8.001-8.001zm0-105.183a7.999 7.999 0 0 1 8.001-7.997h104.49a7.999 7.999 0 1 1 0 15.998h-104.49a8 8 0 0 1-8.001-8.001zm0-44.465a7.999 7.999 0 0 1 8.001-8.001h104.49a8 8 0 1 1 0 15.998h-104.49a7.999 7.999 0 0 1-8.001-7.997zM441.47 481.775V72.596c0-7.85-6.393-14.234-14.243-14.234h-77.608v14.932h68.908a8 8 0 0 1 8.001 8.001v391.779a7.999 7.999 0 0 1-8.001 8.001H93.467a7.999 7.999 0 0 1-7.997-8.001V81.296a7.999 7.999 0 0 1 7.997-8.001h68.922V58.363H84.767c-7.845 0-14.238 6.383-14.238 14.234v409.178c0 7.851 6.393 14.234 14.238 14.234h342.46c7.851-.001 14.243-6.384 14.243-14.234zm-99.852-379.037H170.391a7.999 7.999 0 0 1-8.001-8.001v-5.44h-60.921v375.777h309.058V89.297H349.62v5.44a8.006 8.006 0 0 1-8.002 8.001zM178.387 44.917h40.861a8 8 0 0 0 7.78-6.124C230.26 25.381 242.181 16.011 256 16.011c13.818 0 25.74 9.37 28.967 22.782a8.005 8.005 0 0 0 7.784 6.124h40.87V86.74H178.387V44.917zm248.84-2.557h-77.608v-5.44c0-4.42-3.59-8.001-8.001-8.001h-43.026C291.779 11.624 275.069.008 256 .008c-19.07 0-35.78 11.61-42.592 28.91h-43.017a7.999 7.999 0 0 0-8.001 8.001v5.44H84.767c-16.668 0-30.236 13.564-30.236 30.236v409.178c0 16.673 13.569 30.236 30.236 30.236h342.46c16.673 0 30.241-13.564 30.241-30.236V72.596c0-16.672-13.568-30.236-30.241-30.236z" clip-rule="evenodd"></path></svg>